<?xml version="1.0" encoding="UTF-8"?>
<svg id="Layer_2" data-name="Layer 2" xmlns="http://www.w3.org/2000/svg" viewBox="0 0 1666.65 883.98">
  <defs>
    <style>
      .cls-1 {
        stroke-width: 7px;
      }

      .cls-1, .cls-2, .cls-3 {
        fill: none;
        stroke: #fff;
        stroke-miterlimit: 10;
      }

      .cls-2 {
        stroke-width: 6.84px;
      }

      .cls-4 {
        fill: #fff;
        stroke-width: 0px;
      }

      .cls-3 {
        stroke-width: 7.33px;
      }
    </style>
  </defs>
  <g id="Layer_3" data-name="Layer 3">
    <g>
      <g>
        <g>
          <path class="cls-4" d="m1311.4,87.58c-8.42-17.1-22.04-30.54-41.43-40.88,21-11.67,34.08-24.36,41.44-40.26,7.52,15.64,21.07,28.85,41.18,40.16-18.23,9.07-32.05,22.83-41.19,40.98Z"/>
          <path class="cls-4" d="m1311.44,11.91c7.48,13.19,19.37,24.6,35.98,34.58-15.35,8.52-27.41,20.49-36.01,35.75-8.11-14.45-20.11-26.18-36.35-35.57,17.37-10.24,29.04-21.37,36.39-34.76m-.09-11.91c-7.91,21.69-25.25,35.49-46.77,46.77,20.48,10.01,37.51,24.58,46.77,46.77,8.75-19.97,23.38-36.51,46.77-46.77-25.13-13.19-39.85-28.44-46.77-46.77h0Z"/>
        </g>
        <g>
          <g>
            <path class="cls-4" d="m1666.2,87.79c-2.58-25.42-16.32-48.83-37.6-62.82-6.88-4.56-14.41-8.07-22.31-10.64l1.74-6.59c35.62,7.31,62.46,43.92,58.17,80.05h0Z"/>
            <path class="cls-1" d="m1586.8,87.8V8.39h0c7.04,0,13.86.93,20.36,2.65v76.76"/>
          </g>
          <g>
            <path class="cls-4" d="m1463.95,87.78c-2.67-15.34-12.61-28.86-27.42-33.76-4.38-1.55-9.11-2.05-13.75-2.02-5.95-.02-11.93-.1-17.87-.42,0,0,0-7,0-7,3.4-.18,6.81-.28,10.21-.34,3.38-.04,6.93-.16,10.31-.02,22.43.34,42.34,20.8,38.52,43.56h0Z"/>
            <path class="cls-1" d="m1406.58,48.08h17.67c21.93,0,39.7-17.77,39.7-39.7h0s-59.05,0-59.05,0v79.4"/>
            <path class="cls-1" d="m1384.55,87.78V4.43"/>
          </g>
          <g>
            <path class="cls-4" d="m1566.99,4.43c4.01,22.89-15.94,43.44-38.52,43.64-3.39.12-6.93-.04-10.32-.12-3.4-.1-6.81-.24-10.21-.49v-6.66c6.36-.46,12.77-.59,19.15-.66,20.55-.11,36.29-15.74,39.9-35.71h0Z"/>
            <line class="cls-1" x1="1507.94" y1="87.78" x2="1507.94" y2="4.43"/>
            <path class="cls-4" d="m1509.62,40.63c7.04-.29,14.12-1.01,21.17.02,1.62.13,3.91.76,5.5,1.19.79.17,1.91.56,2.68.85,4.4,1.52,8.62,3.82,12.3,6.65,11.66,8.64,19.26,24.07,15.72,38.45-1.76-6.84-4.18-12.95-7.52-18.41-6.8-11.62-18.94-19.52-32.25-20.97-5.75-.42-11.79-.37-17.6-.78,0,0,0-7,0-7h0Z"/>
            <path class="cls-1" d="m1487.59,4.43v83.36"/>
          </g>
        </g>
        <g>
          <g>
            <path class="cls-4" d="m1251.31,4.43c4.29,36.14-22.55,72.74-58.17,80.05,0,0-1.74-6.59-1.74-6.59,7.9-2.57,15.43-6.08,22.31-10.64,21.28-14,35.02-37.4,37.6-62.82h0Z"/>
            <path class="cls-1" d="m1171.91,4.43v79.4h0c7.04,0,13.86-.93,20.36-2.65V4.43"/>
          </g>
          <g>
            <path class="cls-4" d="m1068.1,86.47c-4.29-36.14,22.55-72.74,58.17-80.05,0,0,1.74,6.59,1.74,6.59-7.9,2.57-15.43,6.08-22.31,10.64-21.28,14-35.02,37.4-37.6,62.82h0Z"/>
            <path class="cls-1" d="m1147.5,86.47V7.07h0c-7.04,0-13.86.93-20.36,2.65v76.76"/>
          </g>
          <g>
            <path class="cls-4" d="m1051.12,4.43c4.01,22.89-15.94,43.44-38.52,43.64-3.39.12-6.93-.04-10.32-.12-3.4-.1-6.81-.24-10.21-.49v-6.66c6.36-.46,12.77-.59,19.15-.66,20.55-.11,36.29-15.74,39.9-35.71h0Z"/>
            <line class="cls-1" x1="992.08" y1="87.78" x2="992.08" y2="4.43"/>
            <path class="cls-4" d="m993.75,40.63c7.04-.29,14.12-1.01,21.17.02,1.62.13,3.91.76,5.5,1.19.79.17,1.91.56,2.68.85,4.4,1.52,8.62,3.82,12.3,6.65,11.66,8.64,19.26,24.07,15.72,38.45-1.76-6.84-4.18-12.95-7.52-18.41-6.8-11.62-18.94-19.52-32.25-20.97-5.75-.42-11.79-.37-17.6-.78,0,0,0-7,0-7h0Z"/>
            <path class="cls-1" d="m971.72,4.43v83.36"/>
          </g>
        </g>
      </g>
      <line class="cls-3" x1="1311.36" y1="883.98" x2="1311.36" y2="69.03"/>
      <g>
        <path class="cls-4" d="m1311.46,802.37c-22.75-46.22-59.56-82.53-111.96-110.45,56.74-31.54,92.09-65.83,111.97-108.8,20.33,42.26,56.93,77.94,111.28,108.52-49.26,24.51-86.61,61.68-111.3,110.73Z"/>
        <path class="cls-4" d="m1311.59,597.9c20.22,35.63,52.34,66.49,97.22,93.44-41.47,23.01-74.07,55.37-97.3,96.59-21.91-39.04-54.34-70.75-98.24-96.1,46.94-27.67,78.48-57.75,98.32-93.93m-.23-32.19c-21.37,58.61-68.23,95.91-126.38,126.38,55.34,27.06,101.37,66.43,126.38,126.38,23.65-53.97,63.17-98.66,126.38-126.38-67.91-35.65-107.67-76.85-126.38-126.38h0Z"/>
      </g>
    </g>
    <g>
      <g>
        <g>
          <path class="cls-4" d="m347.22,105.74c-8.42-17.1-22.04-30.54-41.43-40.87,21-11.67,34.08-24.36,41.44-40.26,7.52,15.64,21.07,28.85,41.18,40.16-18.23,9.07-32.05,22.83-41.19,40.98Z"/>
          <path class="cls-4" d="m347.27,30.07c7.48,13.19,19.37,24.6,35.98,34.58-15.35,8.52-27.41,20.49-36.01,35.75-8.11-14.45-20.11-26.18-36.35-35.57,17.37-10.24,29.04-21.37,36.39-34.76m-.09-11.91c-7.91,21.69-25.25,35.49-46.77,46.77,20.48,10.01,37.51,24.58,46.77,46.77,8.75-19.97,23.38-36.51,46.77-46.77-25.13-13.19-39.85-28.44-46.77-46.77h0Z"/>
        </g>
        <g>
          <g>
            <path class="cls-4" d="m702.03,105.96c-2.58-25.42-16.32-48.83-37.6-62.82-6.88-4.56-14.41-8.07-22.31-10.64l1.74-6.59c35.62,7.31,62.46,43.92,58.17,80.05h0Z"/>
            <path class="cls-1" d="m622.62,105.96V26.55h0c7.04,0,13.86.93,20.36,2.65v76.76"/>
          </g>
          <g>
            <path class="cls-4" d="m499.77,105.94c-2.67-15.34-12.61-28.86-27.42-33.76-4.38-1.55-9.11-2.05-13.75-2.02-5.95-.02-11.93-.1-17.87-.42,0,0,0-7,0-7,3.4-.18,6.81-.28,10.21-.34,3.38-.04,6.93-.16,10.31-.02,22.43.34,42.34,20.8,38.52,43.56h0Z"/>
            <path class="cls-1" d="m442.4,66.24h17.67c21.93,0,39.7-17.77,39.7-39.7h0s-59.05,0-59.05,0v79.4"/>
            <path class="cls-1" d="m420.37,105.94V22.59"/>
          </g>
          <g>
            <path class="cls-4" d="m602.81,22.59c4.01,22.89-15.94,43.44-38.52,43.64-3.39.12-6.93-.04-10.32-.12-3.4-.1-6.81-.24-10.21-.49v-6.66c6.36-.46,12.77-.59,19.15-.66,20.55-.11,36.29-15.74,39.9-35.71h0Z"/>
            <line class="cls-1" x1="543.77" y1="105.94" x2="543.77" y2="22.59"/>
            <path class="cls-4" d="m545.44,58.79c7.04-.29,14.12-1.01,21.17.02,1.62.13,3.91.76,5.5,1.19.79.17,1.91.56,2.68.85,4.4,1.52,8.62,3.82,12.3,6.65,11.66,8.64,19.26,24.07,15.72,38.45-1.76-6.84-4.18-12.95-7.52-18.41-6.8-11.62-18.94-19.52-32.25-20.97-5.75-.42-11.79-.37-17.6-.78,0,0,0-7,0-7h0Z"/>
            <path class="cls-1" d="m523.41,22.59v83.36"/>
          </g>
        </g>
        <g>
          <g>
            <path class="cls-4" d="m287.14,22.59c4.29,36.14-22.55,72.74-58.17,80.05,0,0-1.74-6.59-1.74-6.59,7.9-2.57,15.43-6.08,22.31-10.64,21.28-14,35.02-37.4,37.6-62.82h0Z"/>
            <path class="cls-1" d="m207.73,22.59v79.4h0c7.04,0,13.86-.93,20.36-2.65V22.59"/>
          </g>
          <g>
            <path class="cls-4" d="m103.92,104.63c-4.29-36.14,22.55-72.74,58.17-80.05,0,0,1.74,6.59,1.74,6.59-7.9,2.57-15.43,6.08-22.31,10.64-21.28,14-35.02,37.4-37.6,62.82h0Z"/>
            <path class="cls-1" d="m183.33,104.63V25.23h0c-7.04,0-13.86.93-20.36,2.65v76.76"/>
          </g>
          <g>
            <path class="cls-4" d="m86.95,22.59c4.01,22.89-15.94,43.44-38.52,43.64-3.39.12-6.93-.04-10.32-.12-3.4-.1-6.81-.24-10.21-.49v-6.66c6.36-.46,12.77-.59,19.15-.66,20.55-.11,36.29-15.74,39.9-35.71h0Z"/>
            <line class="cls-1" x1="27.9" y1="105.94" x2="27.9" y2="22.59"/>
            <path class="cls-4" d="m29.58,58.79c7.04-.29,14.12-1.01,21.17.02,1.62.13,3.91.76,5.5,1.19.79.17,1.91.56,2.68.85,4.4,1.52,8.62,3.82,12.3,6.65,11.66,8.64,19.26,24.07,15.72,38.45-1.76-6.84-4.18-12.95-7.52-18.41-6.8-11.62-18.94-19.52-32.25-20.97-5.75-.42-11.79-.37-17.6-.78,0,0,0-7,0-7h0Z"/>
            <path class="cls-1" d="m7.55,22.59v83.36"/>
          </g>
        </g>
      </g>
      <line class="cls-2" x1="0" y1="136.41" x2="709.69" y2="136.41"/>
    </g>
    <g>
      <path class="cls-4" d="m207.84,719.28c-22.75-46.22-59.56-82.53-111.96-110.45,56.74-31.54,92.09-65.83,111.97-108.8,20.32,42.26,56.93,77.94,111.28,108.52-49.26,24.51-86.61,61.68-111.3,110.73Z"/>
      <path class="cls-4" d="m207.97,514.81c20.22,35.63,52.34,66.49,97.22,93.44-41.47,23.01-74.07,55.37-97.3,96.59-21.91-39.04-54.34-70.75-98.24-96.1,46.94-27.67,78.48-57.75,98.32-93.93m-.23-32.19c-21.37,58.61-68.23,95.91-126.38,126.38,55.34,27.06,101.37,66.43,126.38,126.38,23.65-53.97,63.17-98.66,126.38-126.38-67.91-35.65-107.67-76.85-126.38-126.38h0Z"/>
    </g>
  </g>
</svg>